<?xml version="1.0" encoding="UTF-8" standalone="no"?>
<!DOCTYPE svg PUBLIC "-//W3C//DTD SVG 1.1//EN"
 "http://www.w3.org/Graphics/SVG/1.1/DTD/svg11.dtd">
<!-- Generated by graphviz version 2.47.0 (20210316.0004)
 -->
<!-- Title: dependencies Pages: 1 -->
<svg width="1038pt" height="211pt"
 viewBox="0.00 0.00 1038.00 211.00" xmlns="http://www.w3.org/2000/svg" xmlns:xlink="http://www.w3.org/1999/xlink">
<g id="graph0" class="graph" transform="scale(1 1) rotate(0) translate(4 207)">
<title>dependencies</title>
<polygon fill="white" stroke="transparent" points="-4,4 -4,-207 1034,-207 1034,4 -4,4"/>
<text text-anchor="start" x="494.01" y="-42.4" font-family="Times-12" font-weight="bold" font-size="14.00">Legend</text>
<polygon fill="#ffffb3" stroke="transparent" points="281,-10 281,-30 301,-30 301,-10 281,-10"/>
<text text-anchor="start" x="304.63" y="-15.4" font-family="Times-12" font-size="14.00"> &#160;Declarations</text>
<polygon fill="#8dd3c7" stroke="transparent" points="394,-10 394,-30 414,-30 414,-10 394,-10"/>
<text text-anchor="start" x="417.73" y="-15.4" font-family="Times-12" font-size="14.00"> &#160;Module</text>
<polygon fill="#80b1d3" stroke="transparent" points="480,-10 480,-30 500,-30 500,-10 480,-10"/>
<text text-anchor="start" x="503.78" y="-15.4" font-family="Times-12" font-size="14.00"> &#160;Bootstrap</text>
<polygon fill="#fdb462" stroke="transparent" points="577,-10 577,-30 597,-30 597,-10 577,-10"/>
<text text-anchor="start" x="600.67" y="-15.4" font-family="Times-12" font-size="14.00"> &#160;Providers</text>
<polygon fill="#fb8072" stroke="transparent" points="673,-10 673,-30 693,-30 693,-10 673,-10"/>
<text text-anchor="start" x="696.73" y="-15.4" font-family="Times-12" font-size="14.00"> &#160;Exports</text>
<g id="clust1" class="cluster">
<title>cluster_EvidencesModule</title>
<polygon fill="none" stroke="black" stroke-dasharray="1,5" points="8,-70 8,-195 1022,-195 1022,-70 8,-70"/>
</g>
<g id="clust6" class="cluster">
<title>cluster_EvidencesModule_providers</title>
<polygon fill="none" stroke="black" points="16,-78 16,-130 1014,-130 1014,-78 16,-78"/>
</g>
<!-- DocumentsService -->
<g id="node1" class="node">
<title>DocumentsService</title>
<ellipse fill="#fdb462" stroke="black" cx="922" cy="-104" rx="83.95" ry="18"/>
<text text-anchor="middle" x="922" y="-99.8" font-family="Times,serif" font-size="14.00">DocumentsService</text>
</g>
<!-- EvidencesModule -->
<g id="node7" class="node">
<title>EvidencesModule</title>
<polygon fill="#8dd3c7" stroke="black" points="558.58,-187 555.58,-191 534.58,-191 531.58,-187 441.42,-187 441.42,-151 558.58,-151 558.58,-187"/>
<text text-anchor="middle" x="500" y="-164.8" font-family="Times,serif" font-size="14.00">EvidencesModule</text>
</g>
<!-- DocumentsService&#45;&gt;EvidencesModule -->
<g id="edge1" class="edge">
<title>DocumentsService&#45;&gt;EvidencesModule</title>
<path fill="none" stroke="black" d="M922,-122.28C922,-143.32 922,-175 922,-175 922,-175 568.68,-175 568.68,-175"/>
<polygon fill="black" stroke="black" points="568.68,-171.5 558.68,-175 568.68,-178.5 568.68,-171.5"/>
</g>
<!-- EvidencesService -->
<g id="node2" class="node">
<title>EvidencesService</title>
<ellipse fill="#fdb462" stroke="black" cx="740" cy="-104" rx="79.85" ry="18"/>
<text text-anchor="middle" x="740" y="-99.8" font-family="Times,serif" font-size="14.00">EvidencesService</text>
</g>
<!-- EvidencesService&#45;&gt;EvidencesModule -->
<g id="edge2" class="edge">
<title>EvidencesService&#45;&gt;EvidencesModule</title>
<path fill="none" stroke="black" d="M740,-122.02C740,-139.37 740,-163 740,-163 740,-163 568.71,-163 568.71,-163"/>
<polygon fill="black" stroke="black" points="568.71,-159.5 558.71,-163 568.71,-166.5 568.71,-159.5"/>
</g>
<!-- ImagesService -->
<g id="node3" class="node">
<title>ImagesService</title>
<ellipse fill="#fdb462" stroke="black" cx="574" cy="-104" rx="67.75" ry="18"/>
<text text-anchor="middle" x="574" y="-99.8" font-family="Times,serif" font-size="14.00">ImagesService</text>
</g>
<!-- ImagesService&#45;&gt;EvidencesModule -->
<g id="edge3" class="edge">
<title>ImagesService&#45;&gt;EvidencesModule</title>
<path fill="none" stroke="black" d="M532.33,-118.43C532.33,-118.43 532.33,-140.89 532.33,-140.89"/>
<polygon fill="black" stroke="black" points="528.83,-140.89 532.33,-150.89 535.83,-140.89 528.83,-140.89"/>
</g>
<!-- LinksService -->
<g id="node4" class="node">
<title>LinksService</title>
<ellipse fill="#fdb462" stroke="black" cx="426" cy="-104" rx="61.98" ry="18"/>
<text text-anchor="middle" x="426" y="-99.8" font-family="Times,serif" font-size="14.00">LinksService</text>
</g>
<!-- LinksService&#45;&gt;EvidencesModule -->
<g id="edge4" class="edge">
<title>LinksService&#45;&gt;EvidencesModule</title>
<path fill="none" stroke="black" d="M464.72,-118.1C464.72,-118.1 464.72,-140.72 464.72,-140.72"/>
<polygon fill="black" stroke="black" points="461.22,-140.72 464.72,-150.72 468.22,-140.72 461.22,-140.72"/>
</g>
<!-- MailsService -->
<g id="node5" class="node">
<title>MailsService</title>
<ellipse fill="#fdb462" stroke="black" cx="284" cy="-104" rx="61.97" ry="18"/>
<text text-anchor="middle" x="284" y="-99.8" font-family="Times,serif" font-size="14.00">MailsService</text>
</g>
<!-- MailsService&#45;&gt;EvidencesModule -->
<g id="edge5" class="edge">
<title>MailsService&#45;&gt;EvidencesModule</title>
<path fill="none" stroke="black" d="M284,-122.02C284,-139.37 284,-163 284,-163 284,-163 431.26,-163 431.26,-163"/>
<polygon fill="black" stroke="black" points="431.26,-166.5 441.26,-163 431.26,-159.5 431.26,-166.5"/>
</g>
<!-- NotificationsService -->
<g id="node6" class="node">
<title>NotificationsService</title>
<ellipse fill="#fdb462" stroke="black" cx="114" cy="-104" rx="90.32" ry="18"/>
<text text-anchor="middle" x="114" y="-99.8" font-family="Times,serif" font-size="14.00">NotificationsService</text>
</g>
<!-- NotificationsService&#45;&gt;EvidencesModule -->
<g id="edge6" class="edge">
<title>NotificationsService&#45;&gt;EvidencesModule</title>
<path fill="none" stroke="black" d="M114,-122.28C114,-143.32 114,-175 114,-175 114,-175 431.37,-175 431.37,-175"/>
<polygon fill="black" stroke="black" points="431.37,-178.5 441.37,-175 431.37,-171.5 431.37,-178.5"/>
</g>
</g>
</svg>
