<?xml version="1.0" encoding="UTF-8" standalone="no"?>
<!DOCTYPE svg PUBLIC "-//W3C//DTD SVG 1.1//EN"
 "http://www.w3.org/Graphics/SVG/1.1/DTD/svg11.dtd">
<!-- Generated by graphviz version 2.47.0 (20210316.0004)
 -->
<!-- Title: dependencies Pages: 1 -->
<svg width="515pt" height="211pt"
 viewBox="0.00 0.00 515.00 211.00" xmlns="http://www.w3.org/2000/svg" xmlns:xlink="http://www.w3.org/1999/xlink">
<g id="graph0" class="graph" transform="scale(1 1) rotate(0) translate(4 207)">
<title>dependencies</title>
<polygon fill="white" stroke="transparent" points="-4,4 -4,-207 511,-207 511,4 -4,4"/>
<text text-anchor="start" x="232.51" y="-42.4" font-family="Times-12" font-weight="bold" font-size="14.00">Legend</text>
<polygon fill="#ffffb3" stroke="transparent" points="19.5,-10 19.5,-30 39.5,-30 39.5,-10 19.5,-10"/>
<text text-anchor="start" x="43.13" y="-15.4" font-family="Times-12" font-size="14.00"> &#160;Declarations</text>
<polygon fill="#8dd3c7" stroke="transparent" points="132.5,-10 132.5,-30 152.5,-30 152.5,-10 132.5,-10"/>
<text text-anchor="start" x="156.23" y="-15.4" font-family="Times-12" font-size="14.00"> &#160;Module</text>
<polygon fill="#80b1d3" stroke="transparent" points="218.5,-10 218.5,-30 238.5,-30 238.5,-10 218.5,-10"/>
<text text-anchor="start" x="242.28" y="-15.4" font-family="Times-12" font-size="14.00"> &#160;Bootstrap</text>
<polygon fill="#fdb462" stroke="transparent" points="315.5,-10 315.5,-30 335.5,-30 335.5,-10 315.5,-10"/>
<text text-anchor="start" x="339.17" y="-15.4" font-family="Times-12" font-size="14.00"> &#160;Providers</text>
<polygon fill="#fb8072" stroke="transparent" points="411.5,-10 411.5,-30 431.5,-30 431.5,-10 411.5,-10"/>
<text text-anchor="start" x="435.23" y="-15.4" font-family="Times-12" font-size="14.00"> &#160;Exports</text>
<g id="clust1" class="cluster">
<title>cluster_InformationCollectionsModule</title>
<polygon fill="none" stroke="black" stroke-dasharray="1,5" points="8,-70 8,-195 499,-195 499,-70 8,-70"/>
</g>
<g id="clust6" class="cluster">
<title>cluster_InformationCollectionsModule_providers</title>
<polygon fill="none" stroke="black" points="16,-78 16,-130 491,-130 491,-78 16,-78"/>
</g>
<!-- InformationCollectionsService -->
<g id="node1" class="node">
<title>InformationCollectionsService</title>
<ellipse fill="#fdb462" stroke="black" cx="353" cy="-104" rx="130.21" ry="18"/>
<text text-anchor="middle" x="353" y="-99.8" font-family="Times,serif" font-size="14.00">InformationCollectionsService</text>
</g>
<!-- InformationCollectionsModule -->
<g id="node3" class="node">
<title>InformationCollectionsModule</title>
<polygon fill="#8dd3c7" stroke="black" points="328.19,-187 325.19,-191 304.19,-191 301.19,-187 137.81,-187 137.81,-151 328.19,-151 328.19,-187"/>
<text text-anchor="middle" x="233" y="-164.8" font-family="Times,serif" font-size="14.00">InformationCollectionsModule</text>
</g>
<!-- InformationCollectionsService&#45;&gt;InformationCollectionsModule -->
<g id="edge1" class="edge">
<title>InformationCollectionsService&#45;&gt;InformationCollectionsModule</title>
<path fill="none" stroke="black" d="M275.49,-118.75C275.49,-118.75 275.49,-140.59 275.49,-140.59"/>
<polygon fill="black" stroke="black" points="271.99,-140.59 275.49,-150.59 278.99,-140.59 271.99,-140.59"/>
</g>
<!-- NotificationsService -->
<g id="node2" class="node">
<title>NotificationsService</title>
<ellipse fill="#fdb462" stroke="black" cx="114" cy="-104" rx="90.32" ry="18"/>
<text text-anchor="middle" x="114" y="-99.8" font-family="Times,serif" font-size="14.00">NotificationsService</text>
</g>
<!-- NotificationsService&#45;&gt;InformationCollectionsModule -->
<g id="edge2" class="edge">
<title>NotificationsService&#45;&gt;InformationCollectionsModule</title>
<path fill="none" stroke="black" d="M171.16,-118.1C171.16,-118.1 171.16,-140.72 171.16,-140.72"/>
<polygon fill="black" stroke="black" points="167.66,-140.72 171.16,-150.72 174.66,-140.72 167.66,-140.72"/>
</g>
</g>
</svg>
