<?xml version="1.0" encoding="UTF-8" standalone="no"?>
<!DOCTYPE svg PUBLIC "-//W3C//DTD SVG 1.1//EN"
 "http://www.w3.org/Graphics/SVG/1.1/DTD/svg11.dtd">
<!-- Generated by graphviz version 2.47.0 (20210316.0004)
 -->
<!-- Title: dependencies Pages: 1 -->
<svg width="634pt" height="211pt"
 viewBox="0.00 0.00 634.00 211.00" xmlns="http://www.w3.org/2000/svg" xmlns:xlink="http://www.w3.org/1999/xlink">
<g id="graph0" class="graph" transform="scale(1 1) rotate(0) translate(4 207)">
<title>dependencies</title>
<polygon fill="white" stroke="transparent" points="-4,4 -4,-207 630,-207 630,4 -4,4"/>
<text text-anchor="start" x="292.01" y="-42.4" font-family="Times-12" font-weight="bold" font-size="14.00">Legend</text>
<polygon fill="#ffffb3" stroke="transparent" points="79,-10 79,-30 99,-30 99,-10 79,-10"/>
<text text-anchor="start" x="102.63" y="-15.4" font-family="Times-12" font-size="14.00"> &#160;Declarations</text>
<polygon fill="#8dd3c7" stroke="transparent" points="192,-10 192,-30 212,-30 212,-10 192,-10"/>
<text text-anchor="start" x="215.73" y="-15.4" font-family="Times-12" font-size="14.00"> &#160;Module</text>
<polygon fill="#80b1d3" stroke="transparent" points="278,-10 278,-30 298,-30 298,-10 278,-10"/>
<text text-anchor="start" x="301.78" y="-15.4" font-family="Times-12" font-size="14.00"> &#160;Bootstrap</text>
<polygon fill="#fdb462" stroke="transparent" points="375,-10 375,-30 395,-30 395,-10 375,-10"/>
<text text-anchor="start" x="398.67" y="-15.4" font-family="Times-12" font-size="14.00"> &#160;Providers</text>
<polygon fill="#fb8072" stroke="transparent" points="471,-10 471,-30 491,-30 491,-10 471,-10"/>
<text text-anchor="start" x="494.73" y="-15.4" font-family="Times-12" font-size="14.00"> &#160;Exports</text>
<g id="clust1" class="cluster">
<title>cluster_UsersModule</title>
<polygon fill="none" stroke="black" stroke-dasharray="1,5" points="8,-70 8,-195 618,-195 618,-70 8,-70"/>
</g>
<g id="clust6" class="cluster">
<title>cluster_UsersModule_providers</title>
<polygon fill="none" stroke="black" points="132,-78 132,-130 610,-130 610,-78 132,-78"/>
</g>
<g id="clust3" class="cluster">
<title>cluster_UsersModule_imports</title>
<polygon fill="none" stroke="black" points="16,-78 16,-130 124,-130 124,-78 16,-78"/>
</g>
<!-- MailsModule -->
<g id="node1" class="node">
<title>MailsModule</title>
<polygon fill="#8dd3c7" stroke="black" points="115.94,-122 112.94,-126 91.94,-126 88.94,-122 24.06,-122 24.06,-86 115.94,-86 115.94,-122"/>
<text text-anchor="middle" x="70" y="-99.8" font-family="Times,serif" font-size="14.00">MailsModule</text>
</g>
<!-- UsersModule -->
<g id="node2" class="node">
<title>UsersModule</title>
<polygon fill="#8dd3c7" stroke="black" points="318.92,-187 315.92,-191 294.92,-191 291.92,-187 227.08,-187 227.08,-151 318.92,-151 318.92,-187"/>
<text text-anchor="middle" x="273" y="-164.8" font-family="Times,serif" font-size="14.00">UsersModule</text>
</g>
<!-- MailsModule&#45;&gt;UsersModule -->
<g id="edge1" class="edge">
<title>MailsModule&#45;&gt;UsersModule</title>
<path fill="none" stroke="black" d="M70,-122.11C70,-141.34 70,-169 70,-169 70,-169 217.19,-169 217.19,-169"/>
<polygon fill="black" stroke="black" points="217.19,-172.5 227.19,-169 217.19,-165.5 217.19,-172.5"/>
</g>
<!-- DepartmentsService -->
<g id="node3" class="node">
<title>DepartmentsService</title>
<ellipse fill="#fdb462" stroke="black" cx="513" cy="-104" rx="89.16" ry="18"/>
<text text-anchor="middle" x="513" y="-99.8" font-family="Times,serif" font-size="14.00">DepartmentsService</text>
</g>
<!-- DepartmentsService&#45;&gt;UsersModule -->
<g id="edge2" class="edge">
<title>DepartmentsService&#45;&gt;UsersModule</title>
<path fill="none" stroke="black" d="M513,-122.11C513,-141.34 513,-169 513,-169 513,-169 328.99,-169 328.99,-169"/>
<polygon fill="black" stroke="black" points="328.99,-165.5 318.99,-169 328.99,-172.5 328.99,-165.5"/>
</g>
<!-- MailsService -->
<g id="node4" class="node">
<title>MailsService</title>
<ellipse fill="#fdb462" stroke="black" cx="344" cy="-104" rx="61.97" ry="18"/>
<text text-anchor="middle" x="344" y="-99.8" font-family="Times,serif" font-size="14.00">MailsService</text>
</g>
<!-- MailsService&#45;&gt;UsersModule -->
<g id="edge3" class="edge">
<title>MailsService&#45;&gt;UsersModule</title>
<path fill="none" stroke="black" d="M300.36,-116.84C300.36,-116.84 300.36,-140.52 300.36,-140.52"/>
<polygon fill="black" stroke="black" points="296.86,-140.52 300.36,-150.52 303.86,-140.52 296.86,-140.52"/>
</g>
<!-- UsersService -->
<g id="node5" class="node">
<title>UsersService</title>
<ellipse fill="#fdb462" stroke="black" cx="202" cy="-104" rx="61.95" ry="18"/>
<text text-anchor="middle" x="202" y="-99.8" font-family="Times,serif" font-size="14.00">UsersService</text>
</g>
<!-- UsersService&#45;&gt;UsersModule -->
<g id="edge4" class="edge">
<title>UsersService&#45;&gt;UsersModule</title>
<path fill="none" stroke="black" d="M245.63,-116.84C245.63,-116.84 245.63,-140.52 245.63,-140.52"/>
<polygon fill="black" stroke="black" points="242.13,-140.52 245.63,-150.52 249.13,-140.52 242.13,-140.52"/>
</g>
</g>
</svg>
