<?xml version="1.0" encoding="UTF-8" standalone="no"?>
<!DOCTYPE svg PUBLIC "-//W3C//DTD SVG 1.1//EN"
 "http://www.w3.org/Graphics/SVG/1.1/DTD/svg11.dtd">
<!-- Generated by graphviz version 2.47.0 (20210316.0004)
 -->
<!-- Title: dependencies Pages: 1 -->
<svg width="620pt" height="211pt"
 viewBox="0.00 0.00 620.00 211.00" xmlns="http://www.w3.org/2000/svg" xmlns:xlink="http://www.w3.org/1999/xlink">
<g id="graph0" class="graph" transform="scale(1 1) rotate(0) translate(4 207)">
<title>dependencies</title>
<polygon fill="white" stroke="transparent" points="-4,4 -4,-207 616,-207 616,4 -4,4"/>
<text text-anchor="start" x="285.01" y="-42.4" font-family="Times-12" font-weight="bold" font-size="14.00">Legend</text>
<polygon fill="#ffffb3" stroke="transparent" points="72,-10 72,-30 92,-30 92,-10 72,-10"/>
<text text-anchor="start" x="95.63" y="-15.4" font-family="Times-12" font-size="14.00"> &#160;Declarations</text>
<polygon fill="#8dd3c7" stroke="transparent" points="185,-10 185,-30 205,-30 205,-10 185,-10"/>
<text text-anchor="start" x="208.73" y="-15.4" font-family="Times-12" font-size="14.00"> &#160;Module</text>
<polygon fill="#80b1d3" stroke="transparent" points="271,-10 271,-30 291,-30 291,-10 271,-10"/>
<text text-anchor="start" x="294.78" y="-15.4" font-family="Times-12" font-size="14.00"> &#160;Bootstrap</text>
<polygon fill="#fdb462" stroke="transparent" points="368,-10 368,-30 388,-30 388,-10 368,-10"/>
<text text-anchor="start" x="391.67" y="-15.4" font-family="Times-12" font-size="14.00"> &#160;Providers</text>
<polygon fill="#fb8072" stroke="transparent" points="464,-10 464,-30 484,-30 484,-10 464,-10"/>
<text text-anchor="start" x="487.73" y="-15.4" font-family="Times-12" font-size="14.00"> &#160;Exports</text>
<g id="clust1" class="cluster">
<title>cluster_RecommendationsModule</title>
<polygon fill="none" stroke="black" stroke-dasharray="1,5" points="8,-70 8,-195 604,-195 604,-70 8,-70"/>
</g>
<g id="clust6" class="cluster">
<title>cluster_RecommendationsModule_providers</title>
<polygon fill="none" stroke="black" points="16,-78 16,-130 596,-130 596,-78 16,-78"/>
</g>
<!-- MailsService -->
<g id="node1" class="node">
<title>MailsService</title>
<ellipse fill="#fdb462" stroke="black" cx="526" cy="-104" rx="61.97" ry="18"/>
<text text-anchor="middle" x="526" y="-99.8" font-family="Times,serif" font-size="14.00">MailsService</text>
</g>
<!-- RecommendationsModule -->
<g id="node4" class="node">
<title>RecommendationsModule</title>
<polygon fill="#8dd3c7" stroke="black" points="437.75,-187 434.75,-191 413.75,-191 410.75,-187 274.25,-187 274.25,-151 437.75,-151 437.75,-187"/>
<text text-anchor="middle" x="356" y="-164.8" font-family="Times,serif" font-size="14.00">RecommendationsModule</text>
</g>
<!-- MailsService&#45;&gt;RecommendationsModule -->
<g id="edge1" class="edge">
<title>MailsService&#45;&gt;RecommendationsModule</title>
<path fill="none" stroke="black" d="M526,-122.11C526,-141.34 526,-169 526,-169 526,-169 448.01,-169 448.01,-169"/>
<polygon fill="black" stroke="black" points="448.01,-165.5 438.01,-169 448.01,-172.5 448.01,-165.5"/>
</g>
<!-- NotificationsService -->
<g id="node2" class="node">
<title>NotificationsService</title>
<ellipse fill="#fdb462" stroke="black" cx="356" cy="-104" rx="90.32" ry="18"/>
<text text-anchor="middle" x="356" y="-99.8" font-family="Times,serif" font-size="14.00">NotificationsService</text>
</g>
<!-- NotificationsService&#45;&gt;RecommendationsModule -->
<g id="edge2" class="edge">
<title>NotificationsService&#45;&gt;RecommendationsModule</title>
<path fill="none" stroke="black" d="M356,-122.11C356,-122.11 356,-140.99 356,-140.99"/>
<polygon fill="black" stroke="black" points="352.5,-140.99 356,-150.99 359.5,-140.99 352.5,-140.99"/>
</g>
<!-- RecommendationsService -->
<g id="node3" class="node">
<title>RecommendationsService</title>
<ellipse fill="#fdb462" stroke="black" cx="136" cy="-104" rx="111.74" ry="18"/>
<text text-anchor="middle" x="136" y="-99.8" font-family="Times,serif" font-size="14.00">RecommendationsService</text>
</g>
<!-- RecommendationsService&#45;&gt;RecommendationsModule -->
<g id="edge3" class="edge">
<title>RecommendationsService&#45;&gt;RecommendationsModule</title>
<path fill="none" stroke="black" d="M136,-122.11C136,-141.34 136,-169 136,-169 136,-169 264.08,-169 264.08,-169"/>
<polygon fill="black" stroke="black" points="264.08,-172.5 274.08,-169 264.08,-165.5 264.08,-172.5"/>
</g>
</g>
</svg>
