<?xml version="1.0" encoding="UTF-8" standalone="no"?>
<!DOCTYPE svg PUBLIC "-//W3C//DTD SVG 1.1//EN"
 "http://www.w3.org/Graphics/SVG/1.1/DTD/svg11.dtd">
<!-- Generated by graphviz version 2.47.0 (20210316.0004)
 -->
<!-- Title: dependencies Pages: 1 -->
<svg width="2561pt" height="211pt"
 viewBox="0.00 0.00 2561.00 211.00" xmlns="http://www.w3.org/2000/svg" xmlns:xlink="http://www.w3.org/1999/xlink">
<g id="graph0" class="graph" transform="scale(1 1) rotate(0) translate(4 207)">
<title>dependencies</title>
<polygon fill="white" stroke="transparent" points="-4,4 -4,-207 2557,-207 2557,4 -4,4"/>
<text text-anchor="start" x="1255.51" y="-42.4" font-family="Times-12" font-weight="bold" font-size="14.00">Legend</text>
<polygon fill="#ffffb3" stroke="transparent" points="1042.5,-10 1042.5,-30 1062.5,-30 1062.5,-10 1042.5,-10"/>
<text text-anchor="start" x="1066.13" y="-15.4" font-family="Times-12" font-size="14.00"> &#160;Declarations</text>
<polygon fill="#8dd3c7" stroke="transparent" points="1155.5,-10 1155.5,-30 1175.5,-30 1175.5,-10 1155.5,-10"/>
<text text-anchor="start" x="1179.23" y="-15.4" font-family="Times-12" font-size="14.00"> &#160;Module</text>
<polygon fill="#80b1d3" stroke="transparent" points="1241.5,-10 1241.5,-30 1261.5,-30 1261.5,-10 1241.5,-10"/>
<text text-anchor="start" x="1265.28" y="-15.4" font-family="Times-12" font-size="14.00"> &#160;Bootstrap</text>
<polygon fill="#fdb462" stroke="transparent" points="1338.5,-10 1338.5,-30 1358.5,-30 1358.5,-10 1338.5,-10"/>
<text text-anchor="start" x="1362.17" y="-15.4" font-family="Times-12" font-size="14.00"> &#160;Providers</text>
<polygon fill="#fb8072" stroke="transparent" points="1434.5,-10 1434.5,-30 1454.5,-30 1454.5,-10 1434.5,-10"/>
<text text-anchor="start" x="1458.23" y="-15.4" font-family="Times-12" font-size="14.00"> &#160;Exports</text>
<g id="clust1" class="cluster">
<title>cluster_AppModule</title>
<polygon fill="none" stroke="black" stroke-dasharray="1,5" points="8,-70 8,-195 2545,-195 2545,-70 8,-70"/>
</g>
<g id="clust3" class="cluster">
<title>cluster_AppModule_imports</title>
<polygon fill="none" stroke="black" points="16,-78 16,-130 2537,-130 2537,-78 16,-78"/>
</g>
<!-- AuthModule -->
<g id="node1" class="node">
<title>AuthModule</title>
<polygon fill="#8dd3c7" stroke="black" points="2528.55,-122 2525.55,-126 2504.55,-126 2501.55,-122 2441.45,-122 2441.45,-86 2528.55,-86 2528.55,-122"/>
<text text-anchor="middle" x="2485" y="-99.8" font-family="Times,serif" font-size="14.00">AuthModule</text>
</g>
<!-- AppModule -->
<g id="node17" class="node">
<title>AppModule</title>
<polygon fill="#8dd3c7" stroke="black" points="1094.66,-187 1091.66,-191 1070.66,-191 1067.66,-187 1011.34,-187 1011.34,-151 1094.66,-151 1094.66,-187"/>
<text text-anchor="middle" x="1053" y="-164.8" font-family="Times,serif" font-size="14.00">AppModule</text>
</g>
<!-- AuthModule&#45;&gt;AppModule -->
<g id="edge1" class="edge">
<title>AuthModule&#45;&gt;AppModule</title>
<path fill="none" stroke="black" d="M2485,-122.32C2485,-145.66 2485,-183 2485,-183 2485,-183 1104.7,-183 1104.7,-183"/>
<polygon fill="black" stroke="black" points="1104.7,-179.5 1094.7,-183 1104.7,-186.5 1104.7,-179.5"/>
</g>
<!-- CategoriesModule -->
<g id="node2" class="node">
<title>CategoriesModule</title>
<polygon fill="#8dd3c7" stroke="black" points="2423.92,-122 2420.92,-126 2399.92,-126 2396.92,-122 2304.08,-122 2304.08,-86 2423.92,-86 2423.92,-122"/>
<text text-anchor="middle" x="2364" y="-99.8" font-family="Times,serif" font-size="14.00">CategoriesModule</text>
</g>
<!-- CategoriesModule&#45;&gt;AppModule -->
<g id="edge2" class="edge">
<title>CategoriesModule&#45;&gt;AppModule</title>
<path fill="none" stroke="black" d="M2364,-122.16C2364,-144.35 2364,-179 2364,-179 2364,-179 1104.77,-179 1104.77,-179"/>
<polygon fill="black" stroke="black" points="1104.77,-175.5 1094.77,-179 1104.77,-182.5 1104.77,-175.5"/>
</g>
<!-- CategorizedCriteriaModule -->
<g id="node3" class="node">
<title>CategorizedCriteriaModule</title>
<polygon fill="#8dd3c7" stroke="black" points="2285.95,-122 2282.95,-126 2261.95,-126 2258.95,-122 2116.05,-122 2116.05,-86 2285.95,-86 2285.95,-122"/>
<text text-anchor="middle" x="2201" y="-99.8" font-family="Times,serif" font-size="14.00">CategorizedCriteriaModule</text>
</g>
<!-- CategorizedCriteriaModule&#45;&gt;AppModule -->
<g id="edge3" class="edge">
<title>CategorizedCriteriaModule&#45;&gt;AppModule</title>
<path fill="none" stroke="black" d="M2201,-122.28C2201,-143.32 2201,-175 2201,-175 2201,-175 1104.88,-175 1104.88,-175"/>
<polygon fill="black" stroke="black" points="1104.88,-171.5 1094.88,-175 1104.88,-178.5 1104.88,-171.5"/>
</g>
<!-- CriterionModule -->
<g id="node4" class="node">
<title>CriterionModule</title>
<polygon fill="#8dd3c7" stroke="black" points="2098.09,-122 2095.09,-126 2074.09,-126 2071.09,-122 1987.91,-122 1987.91,-86 2098.09,-86 2098.09,-122"/>
<text text-anchor="middle" x="2043" y="-99.8" font-family="Times,serif" font-size="14.00">CriterionModule</text>
</g>
<!-- CriterionModule&#45;&gt;AppModule -->
<g id="edge4" class="edge">
<title>CriterionModule&#45;&gt;AppModule</title>
<path fill="none" stroke="black" d="M2043,-122.31C2043,-142.15 2043,-171 2043,-171 2043,-171 1104.91,-171 1104.91,-171"/>
<polygon fill="black" stroke="black" points="1104.91,-167.5 1094.91,-171 1104.91,-174.5 1104.91,-167.5"/>
</g>
<!-- DepartmentsPerRecopilationsModule -->
<g id="node5" class="node">
<title>DepartmentsPerRecopilationsModule</title>
<polygon fill="#8dd3c7" stroke="black" points="1970.22,-122 1967.22,-126 1946.22,-126 1943.22,-122 1743.78,-122 1743.78,-86 1970.22,-86 1970.22,-122"/>
<text text-anchor="middle" x="1857" y="-99.8" font-family="Times,serif" font-size="14.00">DepartmentsPerRecopilationsModule</text>
</g>
<!-- DepartmentsPerRecopilationsModule&#45;&gt;AppModule -->
<g id="edge5" class="edge">
<title>DepartmentsPerRecopilationsModule&#45;&gt;AppModule</title>
<path fill="none" stroke="black" d="M1857,-122.22C1857,-140.83 1857,-167 1857,-167 1857,-167 1104.81,-167 1104.81,-167"/>
<polygon fill="black" stroke="black" points="1104.81,-163.5 1094.81,-167 1104.81,-170.5 1104.81,-163.5"/>
</g>
<!-- EvidencesModule -->
<g id="node6" class="node">
<title>EvidencesModule</title>
<polygon fill="#8dd3c7" stroke="black" points="1725.58,-122 1722.58,-126 1701.58,-126 1698.58,-122 1608.42,-122 1608.42,-86 1725.58,-86 1725.58,-122"/>
<text text-anchor="middle" x="1667" y="-99.8" font-family="Times,serif" font-size="14.00">EvidencesModule</text>
</g>
<!-- EvidencesModule&#45;&gt;AppModule -->
<g id="edge6" class="edge">
<title>EvidencesModule&#45;&gt;AppModule</title>
<path fill="none" stroke="black" d="M1667,-122.02C1667,-139.37 1667,-163 1667,-163 1667,-163 1104.72,-163 1104.72,-163"/>
<polygon fill="black" stroke="black" points="1104.72,-159.5 1094.72,-163 1104.72,-166.5 1104.72,-159.5"/>
</g>
<!-- IndicatorsModule -->
<g id="node7" class="node">
<title>IndicatorsModule</title>
<polygon fill="#8dd3c7" stroke="black" points="1590.53,-122 1587.53,-126 1566.53,-126 1563.53,-122 1475.47,-122 1475.47,-86 1590.53,-86 1590.53,-122"/>
<text text-anchor="middle" x="1533" y="-99.8" font-family="Times,serif" font-size="14.00">IndicatorsModule</text>
</g>
<!-- IndicatorsModule&#45;&gt;AppModule -->
<g id="edge7" class="edge">
<title>IndicatorsModule&#45;&gt;AppModule</title>
<path fill="none" stroke="black" d="M1533,-122.01C1533,-138.05 1533,-159 1533,-159 1533,-159 1104.76,-159 1104.76,-159"/>
<polygon fill="black" stroke="black" points="1104.76,-155.5 1094.76,-159 1104.76,-162.5 1104.76,-155.5"/>
</g>
<!-- IndicatorsPerRecopilationsModule -->
<g id="node8" class="node">
<title>IndicatorsPerRecopilationsModule</title>
<polygon fill="#8dd3c7" stroke="black" points="1457.67,-122 1454.67,-126 1433.67,-126 1430.67,-122 1246.33,-122 1246.33,-86 1457.67,-86 1457.67,-122"/>
<text text-anchor="middle" x="1352" y="-99.8" font-family="Times,serif" font-size="14.00">IndicatorsPerRecopilationsModule</text>
</g>
<!-- IndicatorsPerRecopilationsModule&#45;&gt;AppModule -->
<g id="edge8" class="edge">
<title>IndicatorsPerRecopilationsModule&#45;&gt;AppModule</title>
<path fill="none" stroke="black" d="M1352,-122.12C1352,-136.78 1352,-155 1352,-155 1352,-155 1104.89,-155 1104.89,-155"/>
<polygon fill="black" stroke="black" points="1104.89,-151.5 1094.89,-155 1104.89,-158.5 1104.89,-151.5"/>
</g>
<!-- InformationCollectionsModule -->
<g id="node9" class="node">
<title>InformationCollectionsModule</title>
<polygon fill="#8dd3c7" stroke="black" points="1228.19,-122 1225.19,-126 1204.19,-126 1201.19,-122 1037.81,-122 1037.81,-86 1228.19,-86 1228.19,-122"/>
<text text-anchor="middle" x="1133" y="-99.8" font-family="Times,serif" font-size="14.00">InformationCollectionsModule</text>
</g>
<!-- InformationCollectionsModule&#45;&gt;AppModule -->
<g id="edge9" class="edge">
<title>InformationCollectionsModule&#45;&gt;AppModule</title>
<path fill="none" stroke="black" d="M1066.37,-122.11C1066.37,-122.11 1066.37,-140.99 1066.37,-140.99"/>
<polygon fill="black" stroke="black" points="1062.87,-140.99 1066.37,-150.99 1069.87,-140.99 1062.87,-140.99"/>
</g>
<!-- MailsModule -->
<g id="node10" class="node">
<title>MailsModule</title>
<polygon fill="#8dd3c7" stroke="black" points="1019.94,-122 1016.94,-126 995.94,-126 992.94,-122 928.06,-122 928.06,-86 1019.94,-86 1019.94,-122"/>
<text text-anchor="middle" x="974" y="-99.8" font-family="Times,serif" font-size="14.00">MailsModule</text>
</g>
<!-- MailsModule&#45;&gt;AppModule -->
<g id="edge10" class="edge">
<title>MailsModule&#45;&gt;AppModule</title>
<path fill="none" stroke="black" d="M1015.44,-122.11C1015.44,-122.11 1015.44,-140.99 1015.44,-140.99"/>
<polygon fill="black" stroke="black" points="1011.94,-140.99 1015.44,-150.99 1018.94,-140.99 1011.94,-140.99"/>
</g>
<!-- NotificationsModule -->
<g id="node11" class="node">
<title>NotificationsModule</title>
<polygon fill="#8dd3c7" stroke="black" points="910.14,-122 907.14,-126 886.14,-126 883.14,-122 777.86,-122 777.86,-86 910.14,-86 910.14,-122"/>
<text text-anchor="middle" x="844" y="-99.8" font-family="Times,serif" font-size="14.00">NotificationsModule</text>
</g>
<!-- NotificationsModule&#45;&gt;AppModule -->
<g id="edge11" class="edge">
<title>NotificationsModule&#45;&gt;AppModule</title>
<path fill="none" stroke="black" d="M844,-122.12C844,-136.78 844,-155 844,-155 844,-155 1001.21,-155 1001.21,-155"/>
<polygon fill="black" stroke="black" points="1001.21,-158.5 1011.21,-155 1001.21,-151.5 1001.21,-158.5"/>
</g>
<!-- RecommendationsModule -->
<g id="node12" class="node">
<title>RecommendationsModule</title>
<polygon fill="#8dd3c7" stroke="black" points="759.75,-122 756.75,-126 735.75,-126 732.75,-122 596.25,-122 596.25,-86 759.75,-86 759.75,-122"/>
<text text-anchor="middle" x="678" y="-99.8" font-family="Times,serif" font-size="14.00">RecommendationsModule</text>
</g>
<!-- RecommendationsModule&#45;&gt;AppModule -->
<g id="edge12" class="edge">
<title>RecommendationsModule&#45;&gt;AppModule</title>
<path fill="none" stroke="black" d="M705.29,-122.01C705.29,-138.05 705.29,-159 705.29,-159 705.29,-159 1001.06,-159 1001.06,-159"/>
<polygon fill="black" stroke="black" points="1001.06,-162.5 1011.06,-159 1001.06,-155.5 1001.06,-162.5"/>
</g>
<!-- RecommendationsModule&#45;&gt;AppModule -->
<g id="edge13" class="edge">
<title>RecommendationsModule&#45;&gt;AppModule</title>
<path fill="none" stroke="black" d="M650.71,-122.02C650.71,-139.37 650.71,-163 650.71,-163 650.71,-163 1001.09,-163 1001.09,-163"/>
<polygon fill="black" stroke="black" points="1001.09,-166.5 1011.09,-163 1001.09,-159.5 1001.09,-166.5"/>
</g>
<!-- RecopilationsModule -->
<g id="node13" class="node">
<title>RecopilationsModule</title>
<polygon fill="#8dd3c7" stroke="black" points="578.04,-122 575.04,-126 554.04,-126 551.04,-122 441.96,-122 441.96,-86 578.04,-86 578.04,-122"/>
<text text-anchor="middle" x="510" y="-99.8" font-family="Times,serif" font-size="14.00">RecopilationsModule</text>
</g>
<!-- RecopilationsModule&#45;&gt;AppModule -->
<g id="edge14" class="edge">
<title>RecopilationsModule&#45;&gt;AppModule</title>
<path fill="none" stroke="black" d="M487.24,-122.31C487.24,-142.15 487.24,-171 487.24,-171 487.24,-171 1000.94,-171 1000.94,-171"/>
<polygon fill="black" stroke="black" points="1000.94,-174.5 1010.94,-171 1000.94,-167.5 1000.94,-174.5"/>
</g>
<!-- RecopilationsModule&#45;&gt;AppModule -->
<g id="edge15" class="edge">
<title>RecopilationsModule&#45;&gt;AppModule</title>
<path fill="none" stroke="black" d="M532.76,-122.22C532.76,-140.83 532.76,-167 532.76,-167 532.76,-167 1001.31,-167 1001.31,-167"/>
<polygon fill="black" stroke="black" points="1001.31,-170.5 1011.31,-167 1001.31,-163.5 1001.31,-170.5"/>
</g>
<!-- SummaryInformationModule -->
<g id="node14" class="node">
<title>SummaryInformationModule</title>
<polygon fill="#8dd3c7" stroke="black" points="423.36,-122 420.36,-126 399.36,-126 396.36,-122 242.64,-122 242.64,-86 423.36,-86 423.36,-122"/>
<text text-anchor="middle" x="333" y="-99.8" font-family="Times,serif" font-size="14.00">SummaryInformationModule</text>
</g>
<!-- SummaryInformationModule&#45;&gt;AppModule -->
<g id="edge16" class="edge">
<title>SummaryInformationModule&#45;&gt;AppModule</title>
<path fill="none" stroke="black" d="M333,-122.28C333,-143.32 333,-175 333,-175 333,-175 1001.18,-175 1001.18,-175"/>
<polygon fill="black" stroke="black" points="1001.18,-178.5 1011.18,-175 1001.18,-171.5 1001.18,-178.5"/>
</g>
<!-- UsersModule -->
<g id="node15" class="node">
<title>UsersModule</title>
<polygon fill="#8dd3c7" stroke="black" points="224.92,-122 221.92,-126 200.92,-126 197.92,-122 133.08,-122 133.08,-86 224.92,-86 224.92,-122"/>
<text text-anchor="middle" x="179" y="-99.8" font-family="Times,serif" font-size="14.00">UsersModule</text>
</g>
<!-- UsersModule&#45;&gt;AppModule -->
<g id="edge17" class="edge">
<title>UsersModule&#45;&gt;AppModule</title>
<path fill="none" stroke="black" d="M179,-122.16C179,-144.35 179,-179 179,-179 179,-179 1001.14,-179 1001.14,-179"/>
<polygon fill="black" stroke="black" points="1001.14,-182.5 1011.14,-179 1001.14,-175.5 1001.14,-182.5"/>
</g>
<!-- WordModule -->
<g id="node16" class="node">
<title>WordModule</title>
<polygon fill="#8dd3c7" stroke="black" points="115.93,-122 112.93,-126 91.93,-126 88.93,-122 24.07,-122 24.07,-86 115.93,-86 115.93,-122"/>
<text text-anchor="middle" x="70" y="-99.8" font-family="Times,serif" font-size="14.00">WordModule</text>
</g>
<!-- WordModule&#45;&gt;AppModule -->
<g id="edge18" class="edge">
<title>WordModule&#45;&gt;AppModule</title>
<path fill="none" stroke="black" d="M70,-122.32C70,-145.66 70,-183 70,-183 70,-183 1001.08,-183 1001.08,-183"/>
<polygon fill="black" stroke="black" points="1001.08,-186.5 1011.08,-183 1001.08,-179.5 1001.08,-186.5"/>
</g>
</g>
</svg>
